<svg xmlns="http://www.w3.org/2000/svg" xmlns:xlink="http://www.w3.org/1999/xlink" width="1366" zoomAndPan="magnify" viewBox="0 0 1024.5 576" height="768" preserveAspectRatio="xMidYMid meet" version="1.0"><defs><clipPath id="bcb869751f"><path d="M 0 0.140625 L 1024 0.140625 L 1024 575.859375 L 0 575.859375 Z M 0 0.140625 " clip-rule="nonzero"/></clipPath><clipPath id="74e02bd9a9"><path d="M 5 0.140625 L 1019 0.140625 L 1019 367.460938 L 5 367.460938 Z M 5 0.140625 " clip-rule="nonzero"/></clipPath><clipPath id="a259c9e801"><path d="M 5 208.5 L 1019 208.5 L 1019 575.820312 L 5 575.820312 Z M 5 208.5 " clip-rule="nonzero"/></clipPath></defs><g clip-path="url(#bcb869751f)"><path fill="#ffffff" d="M 0 0.140625 L 1024 0.140625 L 1024 575.859375 L 0 575.859375 Z M 0 0.140625 " fill-opacity="1" fill-rule="nonzero"/><path fill="#ffffff" d="M 0 0.140625 L 1024 0.140625 L 1024 575.859375 L 0 575.859375 Z M 0 0.140625 " fill-opacity="1" fill-rule="nonzero"/></g><g clip-path="url(#74e02bd9a9)"><path fill="#24356e" d="M 5.40625 367.539062 L 1018.363281 367.539062 L 1018.363281 0.140625 C 1018.363281 0.140625 866.949219 102.71875 683.636719 102.71875 C 523.027344 102.71875 373.355469 0.140625 223.402344 0.140625 C 76.226562 0.140625 5.421875 60.46875 5.421875 60.46875 Z M 5.40625 367.539062 " fill-opacity="1" fill-rule="nonzero"/></g><g clip-path="url(#a259c9e801)"><path fill="#24356e" d="M 5.40625 575.898438 L 1018.363281 575.898438 L 1018.363281 208.5 C 1018.363281 208.5 866.949219 311.078125 683.636719 311.078125 C 523.027344 311.078125 373.355469 208.5 223.402344 208.5 C 76.226562 208.5 5.421875 268.828125 5.421875 268.828125 Z M 5.40625 575.898438 " fill-opacity="1" fill-rule="nonzero"/></g></svg>